<?xml version="1.0" standalone="no"?>
<!DOCTYPE svg PUBLIC "-//W3C//DTD SVG 20010904//EN"
 "http://www.w3.org/TR/2001/REC-SVG-20010904/DTD/svg10.dtd">
<svg version="1.0" xmlns="http://www.w3.org/2000/svg"
 width="4000.000000pt" height="2250.000000pt" viewBox="0 0 4000.000000 2250.000000"
 preserveAspectRatio="xMidYMid meet">

<g transform="translate(0.000000,2250.000000) scale(0.100000,-0.100000)"
fill="#317185" stroke="none">
<path d="M13367 15815 c-436 -62 -844 -279 -1128 -600 -199 -226 -360 -546
-419 -835 -45 -219 -46 -356 -8 -815 37 -447 16 -765 -73 -1124 -125 -504
-343 -904 -679 -1242 -335 -337 -729 -561 -1260 -715 -193 -56 -423 -103 -740
-149 -435 -64 -661 -123 -859 -225 -332 -170 -609 -462 -780 -820 -123 -260
-181 -513 -181 -797 0 -697 395 -1329 1024 -1637 815 -401 1813 -136 2317 613
154 228 245 456 280 701 19 129 14 461 -10 745 -48 568 -13 957 123 1370 191
578 543 1020 1078 1354 355 222 866 405 1288 462 52 7 181 13 285 12 419 -2
838 -106 1290 -322 360 -173 680 -417 917 -701 274 -328 464 -755 542 -1220
53 -315 57 -525 16 -1025 -25 -296 -23 -588 4 -735 50 -274 186 -555 381 -789
449 -538 1179 -769 1868 -592 140 36 238 75 387 152 413 214 739 598 884 1042
151 460 117 944 -98 1382 -177 360 -453 645 -781 809 -201 101 -388 151 -790
211 -488 74 -683 116 -960 210 -438 147 -772 345 -1064 630 -300 292 -500 608
-637 1008 -157 460 -198 862 -145 1455 50 570 9 843 -180 1212 -94 184 -181
302 -329 450 -272 272 -605 447 -980 515 -130 23 -451 29 -583 10z"/>
<path d="M26128 11149 c-571 -70 -1019 -482 -1156 -1062 -24 -103 -26 -129
-27 -337 0 -252 10 -326 72 -504 122 -353 347 -614 670 -779 211 -107 364
-142 628 -142 255 0 416 38 628 147 559 287 847 932 712 1594 -25 120 -59 217
-125 349 -186 375 -535 639 -951 720 -102 20 -345 27 -451 14z m409 -263 c383
-82 674 -354 797 -744 42 -134 58 -243 58 -402 0 -558 -318 -1006 -807 -1137
-90 -24 -117 -26 -275 -26 -158 0 -185 2 -275 26 -328 88 -588 324 -719 653
-170 430 -99 945 178 1275 157 187 387 322 611 358 39 6 81 13 95 15 49 9 266
-3 337 -18z"/>
<path d="M22560 11018 c-17 -46 -245 -652 -507 -1348 -262 -696 -478 -1271
-480 -1277 -4 -10 57 -13 285 -13 l290 0 103 290 102 290 533 0 532 0 40 -112
c22 -62 65 -187 96 -278 32 -92 61 -171 65 -178 6 -9 81 -12 312 -10 l306 3
-506 1355 -506 1355 -317 3 -316 2 -32 -82z m332 -1596 c-201 -1 -367 -1 -369
2 -3 2 304 877 363 1036 3 8 88 -221 188 -510 l183 -525 -365 -3z"/>
<path d="M28220 9740 l0 -1360 135 0 135 0 2 1156 3 1156 790 -1155 790 -1156
153 -1 152 0 0 1360 0 1360 -130 0 -130 0 -2 -1146 -3 -1147 -786 1144 -786
1144 -162 3 -161 2 0 -1360z"/>
<path d="M31080 9740 l0 -1360 815 0 815 0 0 120 0 120 -675 0 -675 0 0 520 0
520 605 0 605 0 0 120 0 120 -602 2 -603 3 -3 478 -2 477 665 0 665 0 0 120 0
120 -805 0 -805 0 0 -1360z"/>
<path d="M24007 7836 c-64 -17 -116 -61 -151 -127 -25 -46 -30 -64 -30 -129 0
-64 5 -83 30 -130 70 -130 218 -173 349 -102 54 30 101 89 111 140 6 32 6 32
-32 32 -36 0 -40 -3 -55 -39 -36 -85 -139 -122 -223 -81 -136 65 -137 294 -3
359 24 12 57 21 73 21 66 -1 146 -59 160 -117 5 -19 13 -23 46 -23 40 0 40 0
34 33 -23 117 -178 199 -309 163z"/>
<path d="M28550 7841 c-74 -16 -135 -63 -173 -136 -17 -32 -22 -57 -22 -125 0
-99 19 -144 83 -202 51 -46 101 -63 183 -62 138 2 239 102 239 235 l0 39 -125
0 -125 0 0 -30 0 -30 85 0 c97 0 104 -8 62 -71 -48 -71 -134 -99 -214 -68 -68
25 -113 100 -113 189 0 128 90 213 206 195 49 -7 110 -52 125 -92 7 -19 16
-23 53 -23 l45 0 -10 30 c-16 44 -84 116 -126 133 -49 19 -128 27 -173 18z"/>
<path d="M30118 7841 c-115 -23 -198 -132 -198 -261 0 -58 5 -78 33 -132 26
-51 42 -69 85 -94 29 -18 72 -35 96 -38 46 -7 121 6 166 29 49 25 120 122 120
165 0 5 -17 10 -39 10 -33 0 -40 -4 -51 -30 -18 -43 -83 -98 -125 -106 -113
-21 -204 67 -205 199 0 134 109 225 224 187 37 -12 99 -74 111 -109 5 -17 14
-21 46 -21 45 0 47 7 20 65 -47 100 -168 158 -283 136z"/>
<path d="M21663 7643 c-40 -104 -84 -218 -98 -255 l-25 -68 39 0 c39 0 39 0
62 65 l23 65 112 0 112 0 24 -62 c24 -63 24 -63 66 -66 l43 -3 -14 33 c-7 18
-51 133 -98 255 l-84 223 -45 0 -45 0 -72 -187z m162 -16 c19 -54 35 -102 35
-107 0 -6 -38 -10 -86 -10 -65 0 -85 3 -81 13 2 6 21 58 42 115 21 56 42 99
46 95 5 -5 24 -52 44 -106z"/>
<path d="M22110 7575 l0 -255 35 0 35 0 0 100 0 100 48 0 49 0 67 -100 66
-100 45 0 45 0 -69 103 -69 104 40 18 c53 23 78 66 78 133 0 68 -20 107 -70
132 -33 17 -59 20 -170 20 l-130 0 0 -255z m269 171 c48 -44 31 -134 -30 -155
-18 -6 -63 -11 -100 -11 l-69 0 0 96 0 96 89 -4 c70 -2 93 -7 110 -22z"/>
<path d="M22540 7800 l0 -30 85 0 85 0 0 -225 0 -225 35 0 35 0 2 223 3 222
83 3 82 3 0 29 0 30 -205 0 -205 0 0 -30z"/>
<path d="M23040 7575 l0 -255 35 0 35 0 0 255 0 255 -35 0 -35 0 0 -255z"/>
<path d="M23240 7575 l0 -255 40 0 40 0 0 105 0 105 100 0 100 0 0 35 0 35
-100 0 -100 0 0 85 0 85 115 0 115 0 0 30 0 30 -155 0 -155 0 0 -255z"/>
<path d="M23650 7575 l0 -255 35 0 35 0 0 255 0 255 -35 0 -35 0 0 -255z"/>
<path d="M24430 7575 l0 -255 35 0 35 0 0 255 0 255 -35 0 -35 0 0 -255z"/>
<path d="M24692 7593 c-50 -131 -94 -246 -98 -255 -5 -15 0 -18 33 -18 l39 0
23 65 23 65 113 0 113 0 24 -65 c23 -65 23 -65 62 -65 47 0 52 -24 -61 277
l-88 233 -46 0 -46 0 -91 -237z m182 33 c20 -54 36 -103 36 -108 0 -4 -38 -8
-85 -8 -47 0 -85 2 -85 5 0 4 60 171 75 208 11 26 18 14 59 -97z"/>
<path d="M25160 7575 l0 -255 150 0 150 0 0 35 0 35 -115 0 -115 0 0 220 0
220 -35 0 -35 0 0 -255z"/>
<path d="M25720 7575 l0 -255 40 0 40 0 0 255 0 255 -40 0 -40 0 0 -255z"/>
<path d="M25930 7575 l0 -255 35 0 35 0 0 202 0 202 137 -202 136 -202 39 0
38 0 0 255 0 255 -35 0 -35 0 -2 -191 -3 -191 -130 191 -129 191 -43 0 -43 0
0 -255z"/>
<path d="M26440 7800 l0 -30 80 0 80 0 0 -225 0 -225 40 0 40 0 0 225 0 225
85 0 85 0 0 30 0 30 -205 0 -205 0 0 -30z"/>
<path d="M26930 7575 l0 -255 165 0 165 0 0 35 0 35 -125 0 -126 0 3 83 3 82
108 3 107 3 0 29 0 30 -110 0 -110 0 0 75 0 75 120 0 120 0 0 30 0 30 -160 0
-160 0 0 -255z"/>
<path d="M27370 7575 l0 -255 150 0 150 0 0 35 0 35 -115 0 -115 0 0 220 0
220 -35 0 -35 0 0 -255z"/>
<path d="M27770 7575 l0 -255 155 0 155 0 0 35 0 35 -115 0 -115 0 0 220 0
220 -40 0 -40 0 0 -255z"/>
<path d="M28180 7575 l0 -255 35 0 35 0 0 255 0 255 -35 0 -35 0 0 -255z"/>
<path d="M28970 7575 l0 -255 160 0 160 0 0 35 0 35 -125 0 -126 0 3 83 3 82
108 3 107 3 0 29 0 30 -110 0 -110 0 0 75 0 75 120 0 120 0 0 30 0 30 -155 0
-155 0 0 -255z"/>
<path d="M29400 7575 l0 -255 35 0 35 0 0 196 c0 107 4 193 8 190 5 -3 66 -91
137 -195 l129 -191 38 0 38 0 0 255 0 255 -35 0 -35 0 -2 -191 -3 -190 -129
190 -129 191 -44 0 -43 0 0 -255z"/>
<path d="M30520 7575 l0 -255 160 0 160 0 0 35 0 35 -120 0 -120 0 0 85 0 85
110 0 110 0 0 30 0 30 -110 0 -110 0 0 75 0 75 120 0 120 0 0 30 0 30 -160 0
-160 0 0 -255z"/>
<path d="M31122 7627 l3 -204 28 -36 c48 -63 124 -87 211 -67 64 14 104 44
127 94 16 35 19 67 19 229 l0 187 -35 0 -35 0 0 -162 c0 -180 -8 -223 -46
-259 -21 -19 -36 -24 -80 -24 -47 0 -57 4 -86 33 l-33 32 -3 190 -3 190 -35 0
-35 0 3 -203z"/>
<path d="M31640 7575 l0 -255 35 0 35 0 0 196 c0 107 4 193 8 190 5 -3 66 -91
137 -195 l129 -191 38 0 38 0 0 255 0 255 -35 0 -35 0 -2 -191 -3 -190 -129
190 -129 191 -44 0 -43 0 0 -255z"/>
<path d="M32190 7575 l0 -255 35 0 35 0 0 255 0 255 -35 0 -35 0 0 -255z"/>
<path d="M32350 7800 l0 -30 85 0 85 0 0 -225 0 -225 35 0 35 0 2 223 3 222
83 3 82 3 0 29 0 30 -205 0 -205 0 0 -30z"/>
</g>
</svg>
